<?xml version="1.0" encoding="UTF-8" standalone="no"?>
<svg
   width="700"
   height="490pt"
   viewBox="0 0 525 490"
   fill="currentColor"
   version="1.1"
   id="svg4"
   sodipodi:docname="icecake-color.svg"
   inkscape:version="1.2 (dc2aedaf03, 2022-05-15)"
   xmlns:inkscape="http://www.inkscape.org/namespaces/inkscape"
   xmlns:sodipodi="http://sodipodi.sourceforge.net/DTD/sodipodi-0.dtd"
   xmlns="http://www.w3.org/2000/svg"
   xmlns:svg="http://www.w3.org/2000/svg">
  <defs
     id="defs8" />
  <sodipodi:namedview
     id="namedview6"
     pagecolor="#ffffff"
     bordercolor="#000000"
     borderopacity="0.25"
     inkscape:showpageshadow="2"
     inkscape:pageopacity="0.0"
     inkscape:pagecheckerboard="0"
     inkscape:deskcolor="#d1d1d1"
     inkscape:document-units="pt"
     showgrid="false"
     inkscape:zoom="0.19649235"
     inkscape:cx="-936.42324"
     inkscape:cy="150.13307"
     inkscape:window-width="1419"
     inkscape:window-height="1230"
     inkscape:window-x="2690"
     inkscape:window-y="614"
     inkscape:window-maximized="0"
     inkscape:current-layer="svg4" />
  <path
     d="M472.203 67.24a61.207 61.207 0 0 0-17.765-49.441A61.212 61.212 0 0 0 410.876 0a61.237 61.237 0 0 0-43.32 18.383 178.044 178.044 0 0 0-17.555-.882h-8.75c-1.36 0-2.7.316-3.914.925l-332.5 166.25a8.749 8.749 0 0 0-4.832 7.825v96.25a8.752 8.752 0 0 0 8.75 8.75c176.517 1.175 353.897 1.084 498.75 0v78.75c-235.667.229-256.396 1.022-490.005 0l.34-81.81L0 282.857v172.146a35.055 35.055 0 0 0 10.262 24.738A35.058 35.058 0 0 0 35 490.002h368.83l2.385-17.5H35a17.51 17.51 0 0 1-12.367-5.133 17.51 17.51 0 0 1-5.133-12.367v-61.25c218.665.053 357.608.552 490.003 0v61.25a17.51 17.51 0 0 1-5.133 12.367 17.51 17.51 0 0 1-12.367 5.133h-96.25v17.5h96.25a35.055 35.055 0 0 0 24.738-10.262 35.058 35.058 0 0 0 10.262-24.738v-262.5a175.542 175.542 0 0 0-13.785-67.95 175.51 175.51 0 0 0-39.012-57.311zM411.25 17.502a43.77 43.77 0 0 1 30.938 12.812A43.766 43.766 0 0 1 455 61.252a43.77 43.77 0 0 1-12.812 30.938 43.766 43.766 0 0 1-30.938 12.812 43.77 43.77 0 0 1-30.938-12.812A43.766 43.766 0 0 1 367.5 61.252a43.794 43.794 0 0 1 43.75-43.75zm-67.934 17.5H350c1.953 0 3.91.047 5.867.12a61.226 61.226 0 0 0-2.266 46.97 61.219 61.219 0 0 0 31.711 34.727 61.23 61.23 0 0 0 46.984 2.004 61.255 61.255 0 0 0 34.547-31.906 158.146 158.146 0 0 1 40.41 96.836H45.813zm-325.816 245v-78.75h490v78.75c-228.719 1.063-327.318 0-490 0zm335.066-172.44 12.375 12.375-26.25 26.25-12.375-12.375zm-52.5 3.625-26.25-26.25 12.375-12.375 26.25 26.25zm-92.625 13.875 26.25 26.25-12.375 12.375-26.25-26.25zm57.625-26.25 12.375 12.375-26.25 26.25-12.375-12.375zm222.38 56.125-26.25 26.25-12.375-12.375 26.25-26.25zm-119.94-6.188h35v17.5h-35zm-227.5 0h35v17.5h-35zm140 0h35v17.5h-35z"
     id="path2" />
  <path
     style="fill:#a00000;stroke:#a00000;stroke-width:0.899662"
     d="M 152.26779,373.13484 23.391212,372.90378 V 320.72644 268.5491 h 326.577298 326.5773 v 52.03186 52.03187 l -95.13925,0.59789 c -52.32659,0.32885 -141.29192,0.49828 -197.70072,0.37654 -56.40881,-0.12175 -160.55593,-0.32535 -231.43805,-0.45242 z"
     id="path1072"
     transform="scale(0.75)" />
  <path
     style="fill:#540000;stroke:#540000;stroke-width:0.899662"
     d="m 37.329424,627.19818 c -2.477672,-1.15379 -5.868312,-3.6507 -7.534755,-5.54867 -6.109807,-6.95869 -5.925103,-5.39132 -6.226651,-52.83822 L 23.294994,525.85243 H 349.96113 676.62725 l -0.26563,42.95886 c -0.2934,47.44935 -0.1085,45.87844 -6.21927,52.83822 -1.66643,1.89797 -5.05708,4.39488 -7.53475,5.54867 l -4.50486,2.0978 H 349.96851 41.834282 Z"
     id="path1074"
     transform="scale(0.75)" />
  <path
     style="fill:#540000;stroke:#540000;stroke-width:1.79932;stroke-opacity:0;fill-opacity:0"
     d="M 130.90082,372.0105 23.391212,371.53209 v -51.26658 -51.26658 h 326.577298 326.5773 v 50.98673 50.98674 l -90.41603,1.1917 c -83.84437,1.1051 -179.63756,1.07277 -455.22896,-0.1536 z"
     id="path1214"
     transform="scale(0.75)" />
  <path
     style="fill:#dc143c;fill-opacity:0;stroke:#dc143c;stroke-width:1.79932;stroke-opacity:0"
     d="m 535.72076,137.48985 c -16.21123,-3.81932 -30.35157,-15.15547 -38.65901,-30.99249 -4.20328,-8.012998 -4.89973,-11.498208 -4.9214,-24.628119 -0.0297,-18.013383 4.16597,-28.579588 16.07439,-40.480793 11.63906,-11.631997 22.62449,-16.088962 39.67941,-16.098565 18.80199,-0.01058 30.00446,4.800546 42.1688,18.11027 15.5551,17.019764 19.68441,40.376967 10.62341,60.090747 -8.26141,17.97413 -19.26598,27.67672 -37.5485,33.10604 -10.49929,3.11795 -17.0652,3.33179 -27.4171,0.89291 z"
     id="path1494"
     transform="scale(0.75)" />
  <path
     style="fill:#dc143c;fill-opacity:1;stroke:#dc143c;stroke-width:3.23638;stroke-dasharray:none;stroke-opacity:1"
     d="m 535.72076,137.48985 c -16.21123,-3.81932 -30.35157,-15.15547 -38.65901,-30.99249 -4.20328,-8.012998 -4.89973,-11.498208 -4.9214,-24.628119 -0.0297,-18.013383 4.16597,-28.579588 16.07439,-40.480793 11.63906,-11.631997 22.62449,-16.088962 39.67941,-16.098565 18.80199,-0.01058 30.00446,4.800546 42.1688,18.11027 15.5551,17.019764 19.68441,40.376967 10.62341,60.090747 -8.26141,17.97413 -19.26598,27.67672 -37.5485,33.10604 -10.49929,3.11795 -17.0652,3.33179 -27.4171,0.89291 z"
     id="path2811"
     transform="scale(0.75)" />
  <path
     style="fill:#8b0000;fill-opacity:1;stroke:#8b0000;stroke-width:3.23638;stroke-dasharray:none;stroke-opacity:1"
     d="M 130.90082,372.0105 23.391212,371.53209 v -51.26658 -51.26658 h 326.577298 326.5773 v 50.98673 50.98674 l -90.41603,1.1917 c -83.84437,1.1051 -179.63756,1.07277 -455.22896,-0.1536 z"
     id="path4676"
     transform="scale(0.75)" />
  <path
     style="fill:#8b4513;fill-opacity:1;stroke:#8b4513;stroke-width:3.23638;stroke-dasharray:none;stroke-opacity:1"
     d="M 36.534075,625.34426 C 25.949548,618.89046 25.665341,617.55951 24.702381,569.93587 L 23.8201,526.30226 h 326.05184 326.05185 l -0.77055,43.63361 c -0.84179,47.66743 -1.10717,48.91887 -11.75028,55.40839 -5.64024,3.43905 -11.62653,3.50602 -313.43445,3.50602 -301.807905,0 -307.794217,-0.067 -313.434435,-3.50602 z"
     id="path4678"
     transform="scale(0.75)" />
  <path
     style="fill:#721c24;fill-opacity:1;stroke:#721c24;stroke-width:3.23638;stroke-dasharray:none;stroke-opacity:1"
     d="m 40.034958,372.01911 -16.643746,-0.59375 v -51.21321 -51.21322 h 326.577298 326.5773 v 50.99372 50.99371 l -40.77557,1.18668 c -39.81222,1.15865 -562.72903,1.02353 -595.735282,-0.15393 z"
     id="path4818"
     transform="scale(0.75)" />
  <path
     style="fill:#4f1319;fill-opacity:1;stroke:#4f1319;stroke-width:3.23638;stroke-dasharray:none;stroke-opacity:1"
     d="M 152.94254,373.31785 C 82.184122,372.80001 24.08845,372.19274 23.841043,371.96836 23.593636,371.74398 23.391212,348.48407 23.391212,320.27967 v -51.28074 h 326.577298 326.5773 v 51.10324 51.10323 l -20.24239,1.14114 c -27.18028,1.53226 -343.34889,2.14236 -503.36088,0.97131 z"
     id="path5096"
     transform="scale(0.75)" />
  <path
     style="fill:#4f1319;fill-opacity:1;stroke:#4f1319;stroke-width:3.23638;stroke-dasharray:none;stroke-opacity:1"
     d="M 42.284113,627.67536 C 26.603468,624.20489 25.284209,619.94889 23.929591,568.46264 L 22.82034,526.30226 h 327.15021 327.1502 l -1.14318,41.88955 c -0.62876,23.03924 -2.03324,44.44275 -3.12109,47.56335 -1.08784,3.1206 -4.14399,7.14421 -6.7914,8.94136 -4.60086,3.12318 -18.40723,3.27876 -312.49792,3.52142 -169.22642,0.13963 -309.30379,-0.10452 -311.283047,-0.54258 z"
     id="path5236"
     transform="scale(0.75)" />
  <path
     style="fill:#4f1319;fill-opacity:1;stroke:#4f1319;stroke-width:3.23638;stroke-dasharray:none;stroke-opacity:1"
     d="M 262.7013,145.74524 C 423.62391,65.076728 459.23467,47.863099 465.36461,47.78131 l 7.43668,-0.09922 -2.72821,7.647127 c -3.81617,10.696607 -4.94812,33.222479 -2.25176,44.809413 9.66109,41.51612 51.46333,69.92132 92.81501,63.06912 22.88766,-3.7926 48.44479,-20.33417 57.55582,-37.25236 1.87294,-3.47783 4.23056,-6.06621 5.23913,-5.75195 3.32909,1.03728 19.86036,24.31702 27.65169,38.93977 12.13872,22.78193 23.66352,61.48409 23.66352,79.46599 v 5.1992 L 371.11057,243.7092 67.474649,243.61 Z m 371.16216,78.67034 17.52746,-17.59349 -9.03154,-8.89574 -9.03155,-8.89574 -17.9622,17.89479 -17.96218,17.8948 8.46521,8.59444 c 4.65585,4.72693 8.91568,8.59443 9.46626,8.59443 0.55057,0 8.88842,-7.91708 18.52854,-17.59349 z M 233.91212,209.62124 v -12.59526 h -24.29088 -24.29087 v 12.59526 12.59527 h 24.29087 24.29088 z m 187.12969,0 v -12.59526 h -24.29087 -24.29088 v 12.59526 12.59527 h 24.29088 24.29087 z m 116.95606,0 v -12.59526 h -24.29088 -24.29087 v 12.59526 12.59527 h 24.29087 24.29088 z m -233.4086,0.40218 8.46521,-8.59443 -17.96218,-17.8948 -17.9622,-17.89479 -9.03155,8.89574 -9.03154,8.89574 17.52746,17.59349 c 9.64012,9.67642 17.97797,17.59349 18.52854,17.59349 0.55058,0 4.81041,-3.86749 9.46626,-8.59444 z m 165.5357,-32.39026 17.52747,-17.59349 -9.03154,-8.89574 -9.03155,-8.89574 -17.9622,17.89479 -17.96218,17.8948 8.4652,8.59443 c 4.65586,4.72694 8.91569,8.59444 9.46627,8.59444 0.55057,0 8.88842,-7.91707 18.52853,-17.59349 z m -116.57485,-11.17859 17.90869,-17.97614 -8.89575,-9.03155 -8.89573,-9.03154 -17.5935,17.52747 c -9.67641,9.64012 -17.59349,18.32172 -17.59349,19.29245 0,1.85379 14.41113,17.19545 16.15248,17.19545 0.55473,0 9.06753,-8.08926 18.9173,-17.97614 z m 56.72756,-26.13971 7.97838,-8.12938 -18.37115,-18.37113 -18.37114,-18.371139 -9.04298,8.907019 -9.04299,8.90701 17.52746,17.5935 c 9.64012,9.67642 18.38622,17.59349 19.43576,17.59349 1.04955,0 5.49856,-3.65822 9.88666,-8.12937 z"
     id="path5238"
     transform="scale(0.75)" />
  <path
     id="path5378"
     style="fill:#ffffff;fill-opacity:1;stroke:#4f1319;stroke-width:3.23638;stroke-dasharray:none;stroke-opacity:1"
     d="M 353.6875 134 L 337.88281 149.73047 C 329.19031 158.38269 322.07813 166.2517 322.07813 167.21484 C 322.07813 168.17799 324.66706 171.63503 327.83008 174.89844 C 330.99309 178.16183 334.04651 180.83203 334.61523 180.83203 C 335.18395 180.83203 342.89185 173.55561 351.74414 164.66211 L 367.83984 148.49219 L 360.76367 141.24609 L 353.6875 134 z "
     transform="scale(0.75)" />
  <path
     style="fill:#ffffff;fill-opacity:1;stroke:#4f1319;stroke-width:3.23638;stroke-dasharray:none;stroke-opacity:1"
     d="m 382.74389,129.04102 -15.73133,-15.80457 7.25874,-7.08797 7.25875,-7.087979 16.55189,16.551889 16.55189,16.55189 -6.1456,6.34065 c -3.38008,3.48736 -7.01576,6.34065 -8.0793,6.34065 -1.06353,0 -9.0128,-7.11205 -17.66504,-15.80456 z"
     id="path5383"
     transform="scale(0.75)" />
  <path
     style="fill:#ffffff;fill-opacity:1;stroke:#4f1319;stroke-width:3.23638;stroke-dasharray:none;stroke-opacity:1"
     d="m 443.91752,184.82412 -6.64381,-6.80388 16.15101,-16.07618 16.15102,-16.07619 7.24597,7.0755 7.24597,7.07551 -15.73133,15.80456 c -8.65224,8.69251 -16.19117,15.80456 -16.75318,15.80456 -0.56201,0 -4.01155,-3.06174 -7.66565,-6.80388 z"
     id="path5385"
     transform="scale(0.75)" />
  <path
     style="fill:#ffffff;fill-opacity:1;stroke:#4f1319;stroke-width:3.23638;stroke-dasharray:none;stroke-opacity:1"
     d="M 491.21544,209.62124 V 198.8253 h 22.49155 22.49155 v 10.79594 10.79595 h -22.49155 -22.49155 z"
     id="path5387"
     transform="scale(0.75)" />
  <path
     style="fill:#ffffff;fill-opacity:1;stroke:#4f1319;stroke-width:3.23638;stroke-dasharray:none;stroke-opacity:1"
     d="m 607.656,231.60655 -6.64381,-6.80389 16.15101,-16.07618 16.15102,-16.07619 7.24597,7.07551 7.24597,7.0755 -15.73133,15.80456 c -8.65224,8.69251 -16.19117,15.80457 -16.75318,15.80457 -0.56201,0 -4.01155,-3.06175 -7.66565,-6.80388 z"
     id="path5389"
     transform="scale(0.75)" />
  <path
     style="fill:#ffffff;fill-opacity:1;stroke:#4f1319;stroke-width:3.23638;stroke-dasharray:none;stroke-opacity:1"
     d="M 374.25939,209.62124 V 198.8253 h 22.49155 22.49155 v 10.79594 10.79595 h -22.49155 -22.49155 z"
     id="path5391"
     transform="scale(0.75)" />
  <path
     style="fill:#ffffff;fill-opacity:1;stroke:#4f1319;stroke-width:3.23638;stroke-dasharray:none;stroke-opacity:1"
     d="m 278.3831,199.21465 -15.73133,-15.80456 7.24597,-7.0755 7.24597,-7.07551 16.15102,16.07619 16.15101,16.07618 -6.64381,6.80388 c -3.6541,3.74214 -7.10364,6.80388 -7.66565,6.80388 -0.56201,0 -8.10094,-7.11205 -16.75318,-15.80456 z"
     id="path5393"
     transform="scale(0.75)" />
  <path
     style="fill:#ffffff;fill-opacity:1;stroke:#4f1319;stroke-width:3.23638;stroke-dasharray:none;stroke-opacity:1"
     d="M 187.12969,209.62124 V 198.8253 h 22.49155 22.49155 v 10.79594 10.79595 h -22.49155 -22.49155 z"
     id="path5395"
     transform="scale(0.75)" />
</svg>
