<svg width="700" height="490pt" viewBox="0 0 525 490" fill="currentColor" xmlns="http://www.w3.org/2000/svg">
<path d="M472.203 67.24a61.207 61.207 0 0 0-17.765-49.441A61.212 61.212 0 0 0 410.876 0a61.237 61.237 0 0 0-43.32 18.383 178.044 178.044 0 0 0-17.555-.882h-8.75c-1.36 0-2.7.316-3.914.925l-332.5 166.25a8.749 8.749 0 0 0-4.832 7.825v96.25a8.752 8.752 0 0 0 8.75 8.75c176.517 1.175 353.897 1.084 498.75 0v78.75c-235.667.229-256.396 1.022-490.005 0l.34-81.81L0 282.857v172.146a35.055 35.055 0 0 0 10.262 24.738A35.058 35.058 0 0 0 35 490.002h368.83l2.385-17.5H35a17.51 17.51 0 0 1-12.367-5.133 17.51 17.51 0 0 1-5.133-12.367v-61.25c218.665.053 357.608.552 490.003 0v61.25a17.51 17.51 0 0 1-5.133 12.367 17.51 17.51 0 0 1-12.367 5.133h-96.25v17.5h96.25a35.055 35.055 0 0 0 24.738-10.262 35.058 35.058 0 0 0 10.262-24.738v-262.5a175.542 175.542 0 0 0-13.785-67.95 175.51 175.51 0 0 0-39.012-57.311zM411.25 17.502a43.77 43.77 0 0 1 30.938 12.812A43.766 43.766 0 0 1 455 61.252a43.77 43.77 0 0 1-12.812 30.938 43.766 43.766 0 0 1-30.938 12.812 43.77 43.77 0 0 1-30.938-12.812A43.766 43.766 0 0 1 367.5 61.252a43.794 43.794 0 0 1 43.75-43.75zm-67.934 17.5H350c1.953 0 3.91.047 5.867.12a61.226 61.226 0 0 0-2.266 46.97 61.219 61.219 0 0 0 31.711 34.727 61.23 61.23 0 0 0 46.984 2.004 61.255 61.255 0 0 0 34.547-31.906 158.146 158.146 0 0 1 40.41 96.836H45.813zm-325.816 245v-78.75h490v78.75c-228.719 1.063-327.318 0-490 0zm335.066-172.44 12.375 12.375-26.25 26.25-12.375-12.375zm-52.5 3.625-26.25-26.25 12.375-12.375 26.25 26.25zm-92.625 13.875 26.25 26.25-12.375 12.375-26.25-26.25zm57.625-26.25 12.375 12.375-26.25 26.25-12.375-12.375zm222.38 56.125-26.25 26.25-12.375-12.375 26.25-26.25zm-119.94-6.188h35v17.5h-35zm-227.5 0h35v17.5h-35zm140 0h35v17.5h-35z"/>
</svg>
